<svg xmlns="http://www.w3.org/2000/svg" width="500" height="500" viewBox="0 0 500 500">
  <rect width="500" height="500" fill="white"/>
  <path d="M187.2314453125 232.9345703125L187.2314453125 232.9345703125Q187.2314453125 235.3759765625 184.0087890625 235.3759765625L184.0087890625 235.3759765625Q183.88671875 235.3759765625 182.1044921875 235.302734375L182.1044921875 235.302734375Q181.7626953125 239.208984375 181.7626953125 246.435546875L181.7626953125 246.435546875Q181.7626953125 249.0478515625 182.01904296875 254.23583984375 182.275390625 259.423828125 182.275390625 262.0361328125L182.275390625 262.0361328125Q182.275390625 262.841796875 182.4951171875 264.453125 182.71484375 266.064453125 182.71484375 266.8701171875L182.71484375 266.8701171875Q182.71484375 267.8955078125 182.01904296875 268.5791015625 181.3232421875 269.2626953125 180.2734375 269.2626953125L180.2734375 269.2626953125Q178.2470703125 269.2626953125 177.880859375 266.9921875L177.880859375 266.9921875Q177.4169921875 264.111328125 177.4169921875 262.0361328125L177.4169921875 262.0361328125Q177.4169921875 259.423828125 177.1728515625 254.23583984375 176.9287109375 249.0478515625 176.9287109375 246.435546875L176.9287109375 246.435546875Q176.9287109375 239.1845703125 177.2705078125 235.05859375L177.2705078125 235.05859375 177.24609375 235.05859375Q177.7587890625 235.0830078125 175.5126953125 235.2783203125L175.5126953125 235.2783203125Q174.31640625 235.3515625 170.5078125 235.3515625L170.5078125 235.3515625Q163.818359375 235.3515625 157.71484375 235.1318359375L157.71484375 235.1318359375Q158.4228515625 247.509765625 158.4228515625 252.2705078125L158.4228515625 252.2705078125Q158.4228515625 253.466796875 158.2763671875 255.5908203125L158.2763671875 255.5908203125Q158.10546875 257.958984375 158.0810546875 258.935546875L158.0810546875 258.935546875Q158.0322265625 260.15625 158.0810546875 262.158203125L158.0810546875 262.158203125Q158.1298828125 264.697265625 158.1298828125 265.4052734375L158.1298828125 265.4052734375Q158.1298828125 269.287109375 155.615234375 269.287109375L155.615234375 269.287109375Q153.8330078125 269.287109375 153.369140625 267.7734375L153.369140625 267.7734375Q153.173828125 267.138671875 153.173828125 264.8193359375L153.173828125 264.8193359375Q153.173828125 260.8154296875 153.22265625 258.8134765625L153.22265625 258.8134765625Q153.2470703125 257.8857421875 153.41796875 255.5419921875L153.41796875 255.5419921875Q153.564453125 253.466796875 153.564453125 252.2705078125L153.564453125 252.2705078125Q153.564453125 249.3896484375 152.8564453125 235.009765625L152.8564453125 235.009765625Q152.34375 235.009765625 151.0986328125 235.0341796875L151.0986328125 235.0341796875Q149.9755859375 235.05859375 149.3408203125 235.05859375L149.3408203125 235.05859375Q148.291015625 235.05859375 147.607421875 234.375 146.923828125 233.69140625 146.923828125 232.6416015625L146.923828125 232.6416015625Q146.923828125 230.1025390625 150.830078125 230.1025390625L150.830078125 230.1025390625Q153.1005859375 230.1025390625 157.6416015625 230.28564453125 162.1826171875 230.46875 164.453125 230.46875L164.453125 230.46875 184.7900390625 230.517578125Q185.83984375 230.517578125 186.53564453125 231.201171875 187.2314453125 231.884765625 187.2314453125 232.9345703125ZM199.853515625 254.052734375L199.853515625 254.052734375Q199.169921875 254.052734375 196.875 253.7353515625L196.875 253.7353515625Q196.6796875 257.421875 196.6796875 266.650390625L196.6796875 266.650390625Q196.6796875 267.626953125 196.044921875 268.29833984375 195.41015625 268.9697265625 194.4580078125 268.9697265625L194.4580078125 268.9697265625Q193.4814453125 268.9697265625 192.8466796875 268.29833984375 192.2119140625 267.626953125 192.2119140625 266.650390625L192.2119140625 266.650390625 192.2119140625 259.47265625Q192.2119140625 255.8837890625 192.6513671875 249.365234375L192.6513671875 249.365234375Q193.1396484375 242.3095703125 193.1884765625 239.2578125L193.1884765625 239.2578125 193.1884765625 235.888671875Q193.1884765625 233.4716796875 193.4814453125 232.373046875L193.4814453125 232.373046875Q194.04296875 230.224609375 195.8740234375 230.517578125L195.8740234375 230.517578125Q196.6552734375 230.2734375 198.095703125 230.1513671875 199.5361328125 230.029296875 201.6357421875 230.029296875L201.6357421875 230.029296875Q206.103515625 230.029296875 210.009765625 233.0810546875L210.009765625 233.0810546875Q214.306640625 236.4501953125 214.306640625 241.1865234375L214.306640625 241.1865234375Q214.306640625 247.2412109375 209.716796875 250.830078125L209.716796875 250.830078125Q205.615234375 254.052734375 199.853515625 254.052734375ZM201.07421875 234.66796875L201.07421875 234.66796875Q200 234.66796875 199.15771484375 234.716796875 198.3154296875 234.765625 197.7294921875 234.86328125L197.7294921875 234.86328125 197.6806640625 239.35546875 197.16796875 249.072265625 199.853515625 249.3896484375Q203.955078125 249.3896484375 206.7626953125 247.314453125L206.7626953125 247.314453125Q209.8388671875 245.0439453125 209.8388671875 241.1865234375L209.8388671875 241.1865234375Q209.8388671875 238.4521484375 206.9091796875 236.474609375L206.9091796875 236.474609375Q204.19921875 234.66796875 201.07421875 234.66796875ZM249.6826171875 232.958984375L249.6826171875 232.958984375Q249.6826171875 234.521484375 249.560546875 237.6953125 249.4384765625 240.869140625 249.4384765625 242.431640625L249.4384765625 242.431640625Q249.4384765625 244.23828125 249.3896484375 247.8271484375 249.3408203125 251.416015625 249.3408203125 253.22265625L249.3408203125 253.22265625Q249.3408203125 255.5419921875 249.15771484375 260.21728515625 248.974609375 264.892578125 248.974609375 267.236328125L248.974609375 267.236328125Q248.974609375 268.2861328125 248.291015625 268.9697265625 247.607421875 269.6533203125 246.5576171875 269.6533203125L246.5576171875 269.6533203125Q245.5078125 269.6533203125 244.81201171875 268.9697265625 244.1162109375 268.2861328125 244.1162109375 267.236328125L244.1162109375 267.236328125Q244.1162109375 264.8681640625 244.29931640625 260.1318359375 244.482421875 255.3955078125 244.482421875 253.02734375L244.482421875 253.02734375Q244.482421875 251.2451171875 244.5556640625 247.509765625L244.5556640625 247.509765625Q244.6044921875 244.0673828125 244.6044921875 241.9677734375L244.6044921875 241.9677734375 244.6044921875 241.259765625Q243.212890625 243.1884765625 240.1123046875 246.3134765625L240.1123046875 246.3134765625Q236.767578125 249.658203125 235.4736328125 251.318359375L235.4736328125 251.318359375Q231.787109375 256.0546875 227.392578125 262.3291015625L227.392578125 262.3291015625Q226.171875 264.1357421875 223.7060546875 267.67578125L223.7060546875 267.67578125Q222.7783203125 268.9453125 221.630859375 268.9453125L221.630859375 268.9453125Q220.5810546875 268.9453125 219.76318359375 268.26171875 218.9453125 267.578125 218.994140625 266.5771484375L218.994140625 266.5771484375 219.0185546875 266.2109375Q219.873046875 251.46484375 219.873046875 249.755859375L219.873046875 249.755859375Q219.873046875 243.0419921875 219.6044921875 237.3291015625L219.6044921875 237.3291015625Q219.580078125 236.8896484375 219.4580078125 235.2783203125L219.4580078125 235.2783203125Q219.3603515625 234.0087890625 219.3603515625 233.2275390625L219.3603515625 233.2275390625Q219.3603515625 232.177734375 220.0439453125 231.494140625 220.7275390625 230.810546875 221.77734375 230.810546875L221.77734375 230.810546875Q222.8271484375 230.810546875 223.5107421875 231.494140625 224.1943359375 232.177734375 224.1943359375 233.2275390625L224.1943359375 233.2275390625Q224.1943359375 233.984375 224.31640625 235.1806640625L224.31640625 235.1806640625Q224.4384765625 236.71875 224.462890625 237.1337890625L224.462890625 237.1337890625Q224.609375 240.5517578125 224.609375 245.6298828125L224.609375 245.6298828125Q224.609375 251.46484375 224.267578125 257.0556640625L224.267578125 257.0556640625Q230.2734375 248.14453125 238.916015625 239.8681640625L238.916015625 239.8681640625Q240.185546875 238.623046875 241.9677734375 236.2060546875L241.9677734375 236.2060546875Q244.0673828125 233.3740234375 244.873046875 232.4462890625L244.873046875 232.4462890625Q245.263671875 230.5908203125 247.216796875 230.5908203125L247.216796875 230.5908203125Q249.6826171875 230.5908203125 249.6826171875 232.958984375ZM292.8466796875 270.41015625L292.8466796875 270.41015625Q291.5283203125 270.41015625 290.673828125 269.04296875L290.673828125 269.04296875Q289.94140625 267.87109375 289.35546875 265.13671875L289.35546875 265.13671875 288.4765625 260.9375Q287.4755859375 257.03125 285.302734375 243.701171875L285.302734375 243.701171875 280.419921875 258.4228515625 278.9794921875 263.0615234375Q278.1005859375 265.8203125 277.1484375 267.578125L277.1484375 267.578125Q276.123046875 269.43359375 274.3896484375 269.43359375L274.3896484375 269.43359375Q272.94921875 269.43359375 272.119140625 267.87109375L272.119140625 267.87109375Q271.58203125 266.845703125 271.142578125 265.2587890625L271.142578125 265.2587890625 270.4345703125 262.548828125Q267.96875 253.9306640625 266.0888671875 244.091796875L266.0888671875 244.091796875 265.2099609375 248.4619140625 262.060546875 261.3525390625Q261.865234375 263.623046875 260.83984375 268.06640625L260.83984375 268.06640625Q260.107421875 269.970703125 258.4228515625 269.970703125L258.4228515625 269.970703125Q257.2265625 269.970703125 256.5185546875 269.1162109375L256.5185546875 269.1162109375Q255.908203125 268.3837890625 255.908203125 267.3095703125L255.908203125 267.3095703125Q255.908203125 263.232421875 257.5927734375 257.2998046875L257.5927734375 257.2998046875 260.2783203125 247.4609375 261.6943359375 239.7705078125Q262.7685546875 234.375 263.96484375 232.71484375L263.96484375 232.71484375Q264.94140625 231.298828125 266.3818359375 231.298828125L266.3818359375 231.298828125Q267.96875 231.298828125 268.75 233.10546875L268.75 233.10546875Q269.7021484375 235.2783203125 270.80078125 241.9677734375L270.80078125 241.9677734375Q272.0947265625 250 274.8291015625 259.3505859375L274.8291015625 259.3505859375Q278.4423828125 249.951171875 281.0791015625 239.7705078125L281.0791015625 239.7705078125 281.8115234375 236.2060546875Q282.2509765625 234.0576171875 282.958984375 232.7392578125L282.958984375 232.7392578125Q283.9111328125 230.9326171875 285.5712890625 230.9326171875L285.5712890625 230.9326171875Q287.6708984375 230.9326171875 288.76953125 234.9853515625L288.76953125 234.9853515625Q289.16015625 236.376953125 289.7216796875 240.7470703125L289.7216796875 240.7470703125Q291.162109375 251.7822265625 293.310546875 259.5947265625L293.310546875 259.5947265625 294.5068359375 263.7939453125Q295.4345703125 267.1630859375 295.4345703125 267.9443359375L295.4345703125 267.9443359375Q295.4345703125 268.994140625 294.64111328125 269.7021484375 293.84765625 270.41015625 292.8466796875 270.41015625ZM324.5361328125 235.5224609375L324.5361328125 235.5224609375Q324.1943359375 235.5224609375 323.779296875 235.400390625L323.779296875 235.400390625Q319.6533203125 234.228515625 315.8203125 234.228515625L315.8203125 234.228515625Q313.818359375 234.228515625 311.4501953125 234.5947265625 309.08203125 234.9609375 306.34765625 235.7177734375L306.34765625 235.7177734375Q306.5673828125 237.3046875 306.5673828125 238.2568359375L306.5673828125 238.2568359375Q306.5673828125 241.650390625 306.15234375 247.5830078125L306.15234375 247.5830078125 316.845703125 246.5576171875Q321.5576171875 246.0693359375 322.6318359375 246.0693359375L322.6318359375 246.0693359375Q323.7060546875 246.0693359375 324.4384765625 246.7529296875 325.1708984375 247.4365234375 325.1708984375 248.583984375L325.1708984375 248.583984375Q325.1708984375 250.8056640625 322.9248046875 251.07421875L322.9248046875 251.07421875 317.1142578125 251.5869140625 305.8349609375 252.6123046875Q305.7373046875 254.345703125 305.67626953125 255.89599609375 305.615234375 257.4462890625 305.615234375 258.7890625L305.615234375 258.7890625Q305.615234375 264.1845703125 306.396484375 265.13671875L306.396484375 265.13671875Q306.982421875 265.8203125 310.2294921875 265.8203125L310.2294921875 265.8203125Q311.7431640625 265.8203125 314.78271484375 265.73486328125 317.822265625 265.6494140625 319.3603515625 265.6494140625L319.3603515625 265.6494140625Q319.8486328125 265.6494140625 320.80078125 265.49072265625 321.7529296875 265.33203125 322.216796875 265.33203125L322.216796875 265.33203125Q324.8046875 265.33203125 324.8046875 267.87109375L324.8046875 267.87109375Q324.8046875 269.921875 322.7294921875 270.3369140625L322.7294921875 270.3369140625Q320.4345703125 270.80078125 312.79296875 270.80078125L312.79296875 270.80078125Q305.224609375 270.80078125 303.076171875 268.798828125L303.076171875 268.798828125Q300.732421875 266.6259765625 300.732421875 258.7890625L300.732421875 258.7890625Q300.732421875 257.2265625 300.8056640625 255.37109375 300.87890625 253.515625 301.0009765625 251.3671875L301.0009765625 251.3671875Q300.732421875 250.8056640625 300.732421875 250.1708984375L300.732421875 250.1708984375Q300.732421875 249.3408203125 301.1962890625 248.681640625L301.1962890625 248.681640625Q301.6845703125 241.6259765625 301.6845703125 238.2568359375L301.6845703125 238.2568359375Q301.6845703125 237.353515625 301.4404296875 235.60791015625 301.1962890625 233.8623046875 301.1962890625 232.958984375L301.1962890625 232.958984375Q301.1962890625 230.0537109375 303.6376953125 230.0537109375L303.6376953125 230.0537109375Q304.6630859375 230.0537109375 305.3955078125 230.76171875L305.3955078125 230.76171875Q308.3251953125 229.98046875 310.92529296875 229.58984375 313.525390625 229.19921875 315.8203125 229.19921875L315.8203125 229.19921875Q321.7529296875 229.19921875 325.29296875 230.615234375L325.29296875 230.615234375Q326.9287109375 231.2744140625 326.9287109375 232.958984375L326.9287109375 232.958984375Q326.9287109375 233.935546875 326.2939453125 234.6923828125L326.2939453125 234.6923828125Q325.5859375 235.5224609375 324.5361328125 235.5224609375ZM338.623046875 254.052734375L338.623046875 254.052734375Q337.939453125 254.052734375 335.64453125 253.7353515625L335.64453125 253.7353515625Q335.44921875 257.421875 335.44921875 266.650390625L335.44921875 266.650390625Q335.44921875 267.626953125 334.814453125 268.29833984375 334.1796875 268.9697265625 333.2275390625 268.9697265625L333.2275390625 268.9697265625Q332.2509765625 268.9697265625 331.6162109375 268.29833984375 330.9814453125 267.626953125 330.9814453125 266.650390625L330.9814453125 266.650390625 330.9814453125 259.47265625Q330.9814453125 255.8837890625 331.4208984375 249.365234375L331.4208984375 249.365234375Q331.9091796875 242.3095703125 331.9580078125 239.2578125L331.9580078125 239.2578125 331.9580078125 235.888671875Q331.9580078125 233.4716796875 332.2509765625 232.373046875L332.2509765625 232.373046875Q332.8125 230.224609375 334.6435546875 230.517578125L334.6435546875 230.517578125Q335.4248046875 230.2734375 336.865234375 230.1513671875 338.3056640625 230.029296875 340.4052734375 230.029296875L340.4052734375 230.029296875Q344.873046875 230.029296875 348.779296875 233.0810546875L348.779296875 233.0810546875Q353.076171875 236.4501953125 353.076171875 241.1865234375L353.076171875 241.1865234375Q353.076171875 247.2412109375 348.486328125 250.830078125L348.486328125 250.830078125Q344.384765625 254.052734375 338.623046875 254.052734375ZM339.84375 234.66796875L339.84375 234.66796875Q338.76953125 234.66796875 337.92724609375 234.716796875 337.0849609375 234.765625 336.4990234375 234.86328125L336.4990234375 234.86328125 336.4501953125 239.35546875 335.9375 249.072265625 338.623046875 249.3896484375Q342.724609375 249.3896484375 345.5322265625 247.314453125L345.5322265625 247.314453125Q348.6083984375 245.0439453125 348.6083984375 241.1865234375L348.6083984375 241.1865234375Q348.6083984375 238.4521484375 345.6787109375 236.474609375L345.6787109375 236.474609375Q342.96875 234.66796875 339.84375 234.66796875Z" fill="#0000ff"/>
  <path d="M368.88186814823365 154.2682940811764L395.73497015120665 171.00269168636532 391.3757628738056 177.99775899825087 369.8932812714272 164.61024091409973 368.6020468883108 166.68223952544025 390.0845284906892 180.0697576095914 385.7253212132881 187.06482492147694 358.8722192103151 170.33042731628802 368.88186814823365 154.2682940811764Z" fill="#ff0000"/>
<path d="M368.4188949900974 143.8895271178357L372.5422526927838 147.39205647604396Q376.174380055439 150.47731699374364 377.53987362656994 151.9319211216824 378.90536719770085 153.38652524962114 379.39077882533286 155.34925307309413 379.87619045296486 157.31198089656715 379.24366544475345 159.41421795250963 378.61114043654203 161.51645500845214 376.87884252291553 163.55580520797574L376.87884252291553 163.55580520797574Q375.2350561815182 165.4909550323412 373.2937042286708 166.49424031935993 371.3523522758234 167.4975256063787 369.2904578559842 167.36054560573444 367.22856343614495 167.2235656050902 365.58825252435025 166.13774378780286 363.9479416125555 165.05192197051554 360.2264996426219 161.8907943909052L360.2264996426219 161.8907943909052 356.1031419399355 158.38826503269695Q352.47101457728036 155.30300451499727 351.1055210061494 153.84840038705852 349.7400274350184 152.39379625911977 349.2546158073864 150.43106843564678 348.76920417975447 148.4683406121738 349.4017291879659 146.36610355623128 350.03425419617724 144.26386650028877 351.76655210980374 142.22451630076517L351.76655210980374 142.22451630076517Q353.41033845120114 140.28936647639972 355.3516904040485 139.28608118938098 357.2930423568959 138.28279590236224 359.3549367767351 138.4197759030065 361.4168311965743 138.55675590365072 363.0571421083691 139.64257772093805 364.6974530201638 140.72839953822537 368.4188949900974 143.8895271178357L368.4188949900974 143.8895271178357ZM370.37469663922366 156.33960094092168L359.2996853367013 146.93208526400133Q357.61759356629136 145.50325559801746 356.9906354990992 145.29102562148324 356.36367743190704 145.078795644949 355.8705415294878 145.65934059225864L355.8705415294878 145.65934059225864Q355.45327268897927 146.15057093228987 355.61158083933975 146.7335068833055 355.7698889897003 147.3164428343211 357.63060997466704 148.89700662412625L357.63060997466704 148.89700662412625 368.88425049174623 158.45625642486792Q370.98314376278876 160.23913237976814 371.6197859714821 160.48521488965977 372.25642818017536 160.73129739955138 372.78749761354993 160.10609514860255L372.78749761354993 160.10609514860255Q373.3312115572429 159.46600712977397 372.9172865016343 158.8068865231164 372.5033614460257 158.1477659164588 370.37469663922366 156.33960094092168L370.37469663922366 156.33960094092168Z" fill="#ff0000"/>
<path d="" fill="#ff0000"/>
<path d="M345.94421593816 151.44714993726674L326.16494820285953 126.75079963512846 332.5981950099598 121.59842248432795 340.9799307084473 132.0013515406193Q342.75741705582294 130.50269603975067 341.24337993443703 128.48729711387597L341.24337993443703 128.48729711387597 337.50715906904327 123.57230894266726Q335.431488419371 120.85565562549726 335.6623718067066 119.14432815420733L335.6623718067066 119.14432815420733 341.5925448113558 114.39486201282962Q341.4439551997267 115.99023419106314 343.71794339808025 118.79828699239664L343.71794339808025 118.79828699239664 347.1426527382147 123.01188381247309Q350.2499170406221 126.82911945486089 346.31727394452577 130.85457799367003L346.31727394452577 130.85457799367003Q351.10457675757954 127.89624570248415 354.1997001153775 131.82329768570514L354.1997001153775 131.82329768570514 357.31924232223133 135.78083899028678Q359.55053177469625 138.59806597999588 361.3718125466563 139.0912123149679L361.3718125466563 139.0912123149679 355.44163954200707 143.84067845634561Q353.6602277195387 143.74099502274686 351.52357842714514 141.0731794036887L351.52357842714514 141.0731794036887 347.66540027630873 136.2558666287037Q346.93283480463094 135.34118698788376 345.93076069452815 135.2304008683223 344.92868658442535 135.11961474876082 344.03228684043813 135.81251671070237L344.03228684043813 135.81251671070237 352.3774627452603 146.29477278646624 345.94421593816 151.44714993726674Z" fill="#ff0000"/>
<path d="M327.19334656883746 139.2198176468793L311.0205828264512 112.04749196652497 318.1367447093852 107.81200597098959Q321.02348962416033 106.0938371237441 322.8456667374878 105.62297371867852 324.66784385081536 105.15211031361295 325.95772902376046 105.54355879766304 327.2476141967056 105.93500728171314 328.2487684555375 106.98697949300178 329.2499227143694 108.03895170429043 330.7683044863538 110.59002860571962L330.7683044863538 110.59002860571962 332.17680336694457 112.95648809980855Q333.72515320021813 115.55791520323963 333.89732849604155 117.0691959710355 334.0695037918649 118.58047673883138 333.01411847780713 120.07233571092989 331.9587331637493 121.5641946830284 329.64262387166224 122.94272550233L329.64262387166224 122.94272550233 327.74609959625764 124.07152247755525 334.2591582497696 135.0142997126331 327.19334656883746 139.2198176468793ZM320.8534454997496 112.4909760171201L320.8534454997496 112.4909760171201 324.96905925012834 119.40573709204659Q325.2811498159027 119.2427121249789 325.4993340245776 119.11285052605918L325.4993340245776 119.11285052605918Q326.47277126328083 118.53346800780199 326.56570119604794 117.83038062911527 326.6586311288151 117.12729325042855 325.7595892901401 115.6167871903718L325.7595892901401 115.6167871903718 324.43100523965376 113.38459490162126Q323.6018888773202 111.99157264623557 322.9157866158941 111.83171082739258 322.22968435446796 111.67184900854957 320.8534454997496 112.4909760171201Z" fill="#ff0000"/>
<path d="M305.26324568131986 97.17163930337824L311.83661224595875 94.31320826382806 318.13404916831263 114.42749135212728Q319.62876466368186 119.1871991054955 319.8718568109573 121.2645327161264 320.11494895823273 123.3418663267573 318.86356296773505 124.82314286998367 317.61217697723737 126.30441941321004 313.9583165434871 127.89330206189734L313.9583165434871 127.89330206189734 309.5521907263177 129.8093076088438 307.9243648754567 126.06589177230556 308.3721418893967 125.87117576143702Q309.8587615756774 125.22471860535346 310.1028810006816 124.83104052934841 310.3470004256858 124.43736245334335 310.12891849351297 123.93585219773058L310.12891849351297 123.93585219773058Q310.1133412126435 123.90003003661539 308.632008820571 121.66896153177329L308.632008820571 121.66896153177329 295.17930732739154 101.5566438681378 301.7347628114728 98.70600146902235 311.9678860838531 115.72448149326169 305.26324568131986 97.17163930337824Z" fill="#ff0000"/>
<path d="M295.90114021380003 89.28677326254284L297.74382874262915 95.34066994165345 291.9702050579218 97.09804881637014 299.34095917323845 121.31363553281257 291.4559455973598 123.71368046850979 282.24250295321406 93.44419707295675 295.90114021380003 89.28677326254284Z" fill="#ff0000"/>
<path d="M276.0049714542922 86.53715916536973L283.0561584962436 85.24854079657584 284.6141993678824 106.2679271955545Q284.9872975028714 111.24284328441851 284.751593373446 113.32102813791343 284.51588924402057 115.39921299140833 282.9604221091248 116.55708564718086 281.40495497422904 117.71495830295339 277.48549405717705 118.43124753247369L277.48549405717705 118.43124753247369 272.7590853042614 119.29500807395407 272.0252399661744 115.27948193834686 272.5055660589504 115.19170139551349Q274.10024868696667 114.9002699933067 274.4275015462019 114.57242507979764 274.75475440543715 114.24458016628857 274.6564401974638 113.70661494237947L274.6564401974638 113.70661494237947Q274.6494177540371 113.66818885495739 273.71428977367196 111.15869727508714L273.71428977367196 111.15869727508714 265.1880278449771 88.51397698997725 272.22000184321746 87.2288698428967 278.31464814382724 106.12862541575076 276.0049714542922 86.53715916536973Z" fill="#ff0000"/>
</svg>